<?xml version="1.0" encoding="utf-8"?>
<!-- Generator: Adobe Illustrator 21.1.0, SVG Export Plug-In . SVG Version: 6.00 Build 0)  -->
<svg version="1.1" id="Layer_1" xmlns="http://www.w3.org/2000/svg" xmlns:xlink="http://www.w3.org/1999/xlink" x="0px" y="0px"
	 viewBox="0 0 450 102" style="enable-background:new 0 0 450 102;" xml:space="preserve">
<style type="text/css">
	.st0{fill:#FFFFFF;}
	.st1{fill:#FF4530;}
</style>
<g>
	<path class="st0" d="M7.9,3.4V50h16v7.7H-0.3V3.4H7.9z"/>
	<path class="st0" d="M74.1,44.5H50.9l-6,13.2H36L62.9,0l25.9,57.7h-9L74.1,44.5z M70.8,36.8l-8.1-18.5l-8.4,18.5H70.8z"/>
	<path class="st0" d="M101.6,3.4l14.1,36.3l14.8-38.9l14.1,38.9l15-36.3h8.9l-24.3,57.7l-14-38.5l-14.6,38.5L92.7,3.4H101.6z"/>
	<path class="st0" d="M201.1,11.1v46.6h-8.2V11.1h-12.5V3.4h33.1v7.7H201.1z"/>
	<path class="st0" d="M224,30.3c0-7.6,2.8-14.2,8.4-19.7c5.6-5.5,12.3-8.2,20.1-8.2c7.7,0,14.4,2.8,19.9,8.3
		c5.6,5.5,8.3,12.2,8.3,19.9c0,7.8-2.8,14.4-8.4,19.9c-5.6,5.5-12.4,8.2-20.3,8.2c-7,0-13.3-2.4-18.9-7.3C227,46,224,39,224,30.3z
		 M232.2,30.4c0,6,2,10.9,6,14.8c4,3.9,8.6,5.8,13.9,5.8c5.7,0,10.5-2,14.4-5.9c3.9-4,5.9-8.8,5.9-14.6c0-5.8-1.9-10.6-5.8-14.6
		c-3.8-3.9-8.6-5.9-14.3-5.9c-5.6,0-10.4,2-14.3,5.9C234.2,19.9,232.2,24.7,232.2,30.4z"/>
	<path class="st0" d="M298.6,57.7v-58l39.6,41.4V3.4h8.2V61l-39.6-41.3v38H298.6z"/>
</g>
<g>
	<path class="st0" d="M188,65.9v19.7c0,5.7,2.2,8.5,6.7,8.5c4.5,0,6.7-2.8,6.7-8.5V65.9h7.9v19.8c0,2.7-0.3,5.1-1,7.1
		c-0.7,1.8-1.8,3.4-3.4,4.8c-2.7,2.3-6.1,3.5-10.2,3.5c-4.1,0-7.5-1.2-10.2-3.5c-1.6-1.4-2.8-3-3.5-4.8c-0.7-1.6-1-4-1-7.1V65.9H188
		z"/>
	<path class="st0" d="M219.3,65.9h7.9v3.2c2.8-2.7,5.9-4.1,9.4-4.1c4,0,7.1,1.3,9.3,3.8c1.9,2.1,2.9,5.6,2.9,10.4v21h-7.9V81
		c0-3.4-0.5-5.7-1.4-7c-0.9-1.3-2.6-2-5-2c-2.6,0-4.5,0.9-5.6,2.6c-1.1,1.7-1.6,4.7-1.6,9v16.5h-7.9V65.9z"/>
	<path class="st0" d="M284,40.8h7.9v59.4H284v-3.6c-3.1,3-6.6,4.6-10.6,4.6c-4.7,0-8.6-1.7-11.7-5.1c-3.1-3.5-4.6-7.9-4.6-13.1
		c0-5.1,1.5-9.4,4.6-12.8c3-3.4,6.9-5.2,11.5-5.2c4,0,7.6,1.6,10.8,4.9V40.8z M265.2,82.9c0,3.3,0.9,6,2.6,8
		c1.8,2.1,4.1,3.1,6.8,3.1c2.9,0,5.3-1,7.1-3c1.8-2.1,2.7-4.7,2.7-7.9s-0.9-5.9-2.7-7.9c-1.8-2-4.1-3.1-7-3.1c-2.7,0-5,1-6.8,3.1
		C266.1,77.3,265.2,79.9,265.2,82.9z"/>
	<path class="st0" d="M333.1,84.9h-24.5c0.2,2.8,1.1,5.1,2.7,6.7c1.6,1.6,3.7,2.5,6.2,2.5c2,0,3.6-0.5,4.9-1.4
		c1.3-0.9,2.7-2.7,4.3-5.2l6.7,3.7c-1,1.8-2.1,3.3-3.3,4.5c-1.1,1.3-2.4,2.3-3.7,3.1c-1.3,0.8-2.7,1.4-4.3,1.8
		c-1.5,0.4-3.2,0.6-5,0.6c-5.1,0-9.2-1.6-12.3-4.9c-3.1-3.3-4.6-7.7-4.6-13.1c0-5.4,1.5-9.8,4.5-13.1c3-3.3,7-5,12-5
		c5,0,9,1.6,12,4.8c2.9,3.2,4.4,7.6,4.4,13.3L333.1,84.9z M325,78.4c-1.1-4.2-3.8-6.3-8-6.3c-1,0-1.9,0.1-2.7,0.4s-1.6,0.7-2.3,1.3
		c-0.7,0.6-1.3,1.2-1.8,2s-0.9,1.7-1.1,2.6H325z"/>
	<path class="st0" d="M341.8,65.9h7.9V69c1.5-1.5,2.7-2.6,3.9-3.1c1.1-0.6,2.5-0.9,4.1-0.9c2.1,0,4.3,0.7,6.5,2l-3.6,7.2
		c-1.5-1.1-3-1.6-4.4-1.6c-4.3,0-6.5,3.3-6.5,9.8v17.8h-7.9V65.9z"/>
	<path class="st0" d="M399.2,85h5.8v7.5h-5.8v7.7H391v-7.7h-26.6l34.8-50.6V85z M391,85V66.8L378.5,85H391z"/>
	<path class="st0" d="M411.2,72.7c0-8.6,2-15.6,6-20.7c3.6-4.7,8-7,13.1-7s9.5,2.3,13.1,7c4,5.2,6,12.2,6,21.1c0,8.9-2,15.9-6,21
		c-3.6,4.7-8,7-13.1,7c-5.1,0-9.5-2.3-13.1-7C413.2,88.9,411.2,81.8,411.2,72.7z M419.2,72.7c0,6,1,11,3.1,15c2.1,3.9,4.7,5.9,8,5.9
		c3.2,0,5.9-2,8-5.9c2.1-3.9,3.2-8.8,3.2-14.7s-1.1-10.9-3.2-14.8c-2.1-3.9-4.8-5.8-8-5.8c-3.2,0-5.8,1.9-7.9,5.8
		C420.3,62.1,419.2,66.9,419.2,72.7z"/>
</g>
<rect y="66" class="st1" width="175" height="35"/>
</svg>
